<?xml version="1.0" standalone="no"?>
<svg xmlns="http://www.w3.org/2000/svg" viewBox="0 0 120.217 36" width="120.217" height="36"><g fill="#a8be9b" color="#a8be9b" transform="translate(92.217, 6.851851851851853) scale(0.5185186)"><svg width="54.0" height="43.0" x="0.0" y="0.0" viewBox="0 0 54 43"><path fill="currentColor" fill-rule="evenodd" d="M32.91 7.132a1.076 1.076 0 0 1-.803-1.796c1.739-1.943 3.961-3.431 6.604-4.422C44.14-1.14 49.186.27 53.71 5.102a1.078 1.078 0 1 1-1.574 1.474c-3.922-4.19-8.064-5.384-12.664-3.645-2.317.869-4.254 2.161-5.758 3.842-.212.239-.507.36-.803.36M9.594 20.353c-.024 0-.05 0-.075-.003a1.077 1.077 0 0 1-1.001-1.148c.01-.163.019-.305.025-.43a8.384 8.384 0 0 1-.362-.03l-.136.496a1.077 1.077 0 1 1-2.078-.572l.127-.461-.187-.065-.213.488a1.077 1.077 0 1 1-1.976-.861l.242-.554-.239-.151-.504.52a1.077 1.077 0 1 1-1.548-1.5l1.114-1.15c.355-.367.92-.434 1.35-.16l1.654 1.046 1.919.662c.546.13 1.143.177 1.775.14l.02-.002a9.233 9.233 0 0 0 2.207-.418l.004-.001a13.913 13.913 0 0 0 1.795-.853 52.783 52.783 0 0 0 1.475-1.065 1.079 1.079 0 0 1 1.397.089l1.15 1.113a1.077 1.077 0 1 1-1.501 1.548l-.495-.48c-.008.007-.016.012-.024.017.25.45.347.661.402.797a1.078 1.078 0 0 1-2.001.801 5.45 5.45 0 0 0-.242-.472c-.109.053-.219.105-.33.156l.2.695a1.078 1.078 0 1 1-2.07.598l-.176-.606c-.196.043-.39.08-.584.112a27.08 27.08 0 0 1-.04.7 1.078 1.078 0 0 1-1.074 1.004m32.587 0c-.024 0-.05 0-.075-.003a1.077 1.077 0 0 1-1.001-1.148c.01-.163.019-.305.025-.43a8.579 8.579 0 0 1-.362-.03l-.135.496a1.078 1.078 0 0 1-2.08-.571l.128-.462-.187-.065-.213.488a1.078 1.078 0 0 1-1.976-.862l.242-.553-.226-.143-.468.5a1.078 1.078 0 0 1-1.573-1.475l1.078-1.15a1.08 1.08 0 0 1 1.363-.174l1.653 1.047 1.919.662c.546.13 1.144.177 1.774.14l.02-.002a9.232 9.232 0 0 0 2.208-.418l.005-.001a11.44 11.44 0 0 0 1.794-.853c.542-.361 1.03-.714 1.454-1.048a1.077 1.077 0 0 1 1.418.072l1.15 1.113a1.078 1.078 0 1 1-1.5 1.548l-.488-.472-.022.016c.186.322.314.557.391.709a1.079 1.079 0 0 1-1.928.964 11.7 11.7 0 0 0-.304-.55c-.11.054-.224.106-.339.158l.2.69a1.078 1.078 0 1 1-2.072.597l-.174-.606c-.197.043-.391.08-.584.112a26.9 26.9 0 0 1-.04.7 1.078 1.078 0 0 1-1.075 1.004M23.082 42.472c-.76 0-1.392-.206-1.907-.614-.416-.333-.925-.955-1.015-2.05a.924.924 0 0 1-.005-.089v-.862L20.05 6.272c-3.837-3.944-7.888-5.037-12.375-3.341-2.319.87-4.27 2.164-5.798 3.848A1.078 1.078 0 1 1 .28 5.33C2.042 3.39 4.274 1.904 6.914.914 12.344-1.14 17.39.27 21.912 5.102c.186.2.29.461.291.733l.108 33.834c.039.368.165.47.207.502.183.144 1.35.735 5.966-2.22a1.078 1.078 0 1 1 1.163 1.814c-2.832 1.814-4.98 2.707-6.565 2.707"></path></svg></g><path fill="#09675b" fill-rule="nonzero" d="M5.26 18.38Q2.54 18.38 1.27 17.02Q0 15.65 0 12.48L0 12.48Q0 9.96 0.85 7.06Q1.70 4.15 3.59 2.08Q5.47 0 8.38 0L8.38 0Q10.18 0 11.28 0.79Q12.38 1.58 12.38 3.22L12.38 3.22Q12.38 4.25 11.98 4.84Q11.57 5.42 10.70 5.42L10.70 5.42Q9.84 5.42 9.34 4.80L9.34 4.80Q9.77 4.58 10.10 3.94Q10.44 3.29 10.44 2.59L10.44 2.59Q10.44 1.94 10.09 1.54Q9.74 1.13 8.98 1.13L8.98 1.13Q7.70 1.13 6.55 2.87Q5.40 4.61 4.69 7.25Q3.98 9.89 3.98 12.34L3.98 12.34Q3.98 14.16 4.61 15.12Q5.23 16.08 6.86 16.08L6.86 16.08Q8.28 16.08 9.48 15.46Q10.68 14.83 11.54 13.68L11.54 13.68L12.10 13.92Q11.50 15.43 10.32 16.44Q9.14 17.45 7.80 17.92Q6.46 18.38 5.26 18.38L5.26 18.38ZM14.98 18.10Q13.20 18.10 12.17 17.18Q11.14 16.27 11.14 14.30L11.14 14.30Q11.14 12.67 11.81 10.68Q12.48 8.69 13.97 7.24Q15.46 5.78 17.71 5.78L17.71 5.78Q20.78 5.78 20.78 9.62L20.78 9.62L20.78 9.65Q20.86 9.67 21.05 9.67L21.05 9.67Q21.84 9.67 22.87 9.25Q23.90 8.83 24.74 8.23L24.74 8.23L24.96 8.88Q24.26 9.62 23.15 10.14Q22.03 10.66 20.71 10.87L20.71 10.87Q20.52 13.06 19.73 14.69Q18.94 16.32 17.69 17.21Q16.44 18.10 14.98 18.10L14.98 18.10ZM15.94 15.94Q16.51 15.94 17.09 15.28Q17.66 14.62 18.10 13.48Q18.53 12.34 18.72 10.94L18.72 10.94Q18.07 10.80 18.07 9.94L18.07 9.94Q18.07 8.95 18.82 8.64L18.82 8.64Q18.77 7.85 18.58 7.55Q18.38 7.25 17.90 7.25L17.90 7.25Q17.11 7.25 16.37 8.40Q15.62 9.55 15.17 11.16Q14.71 12.77 14.71 13.99L14.71 13.99Q14.71 15.14 14.98 15.54Q15.24 15.94 15.94 15.94L15.94 15.94ZM26.23 24L27.74 16.82Q26.52 18.14 24.89 18.14L24.89 18.14Q23.52 18.14 22.61 17.21Q21.70 16.27 21.70 14.28L21.70 14.28Q21.70 12.50 22.40 10.55Q23.11 8.59 24.52 7.24Q25.92 5.88 27.86 5.88L27.86 5.88Q28.85 5.88 29.33 6.22Q29.81 6.55 29.81 7.10L29.81 7.10L29.81 7.15L30.05 6L33.50 6L29.86 23.14L26.23 24ZM26.45 15.82Q26.98 15.82 27.52 15.36Q28.06 14.90 28.32 14.11L28.32 14.11L29.59 8.18Q29.40 7.37 28.61 7.37L28.61 7.37Q27.65 7.37 26.88 8.48Q26.11 9.60 25.68 11.17Q25.25 12.74 25.25 13.94L25.25 13.94Q25.25 15.14 25.60 15.48Q25.94 15.82 26.45 15.82L26.45 15.82ZM36.05 18.14Q34.90 18.14 34.19 17.42Q33.48 16.70 33.48 15.26L33.48 15.26Q33.48 14.66 33.67 13.70L33.67 13.70L35.30 6L38.76 6L37.03 14.16Q36.96 14.52 36.96 14.83L36.96 14.83Q36.96 15.82 37.68 15.82L37.68 15.82Q38.35 15.82 38.83 15.25Q39.31 14.69 39.60 13.70L39.60 13.70L41.23 6L44.69 6L42.96 14.16Q42.86 14.52 42.86 14.93L42.86 14.93Q42.86 15.41 43.09 15.61Q43.32 15.82 43.85 15.82L43.85 15.82Q44.52 15.82 45.01 15.24Q45.50 14.66 45.79 13.70L45.79 13.70L46.80 13.70Q45.91 16.30 44.60 17.22Q43.30 18.14 41.98 18.14L41.98 18.14Q40.94 18.14 40.33 17.57Q39.72 16.99 39.60 15.86L39.60 15.86Q38.78 17.18 37.88 17.66Q36.98 18.14 36.05 18.14L36.05 18.14ZM49.22 18.14Q47.45 18.14 46.46 17.22Q45.48 16.30 45.48 14.33L45.48 14.33Q45.48 12.67 46.13 10.68Q46.78 8.69 48.24 7.24Q49.70 5.78 51.96 5.78L51.96 5.78Q54.60 5.78 54.60 8.09L54.60 8.09Q54.60 9.43 53.83 10.56Q53.06 11.69 51.79 12.37Q50.52 13.06 49.08 13.15L49.08 13.15Q49.03 13.87 49.03 14.11L49.03 14.11Q49.03 15.29 49.44 15.71Q49.85 16.13 50.76 16.13L50.76 16.13Q52.06 16.13 52.98 15.53Q53.90 14.93 55.01 13.70L55.01 13.70L55.82 13.70Q53.16 18.14 49.22 18.14L49.22 18.14ZM49.27 12Q50.16 11.95 50.96 11.38Q51.77 10.80 52.26 9.91Q52.75 9.02 52.75 8.04L52.75 8.04Q52.75 7.06 52.15 7.06L52.15 7.06Q51.29 7.06 50.46 8.57Q49.63 10.08 49.27 12L49.27 12ZM57.38 18.14Q56.23 18.14 55.52 17.42Q54.82 16.70 54.82 15.26L54.82 15.26Q54.82 14.66 55.01 13.70L55.01 13.70L56.45 6.96L55.66 6.96L55.85 6L56.64 6L57.36 2.69L60.91 2.21L60.10 6L61.54 6L61.34 6.96L59.90 6.96L58.37 14.16Q58.27 14.52 58.27 14.93L58.27 14.93Q58.27 15.41 58.50 15.61Q58.73 15.82 59.26 15.82L59.26 15.82Q59.95 15.82 60.55 15.23Q61.15 14.64 61.42 13.70L61.42 13.70L62.42 13.70Q61.54 16.30 60.14 17.22Q58.75 18.14 57.38 18.14L57.38 18.14ZM64.30 18.14Q62.93 18.14 62.02 17.21Q61.10 16.27 61.10 14.28L61.10 14.28Q61.10 12.50 61.81 10.55Q62.52 8.59 63.92 7.24Q65.33 5.88 67.27 5.88L67.27 5.88Q68.26 5.88 68.74 6.22Q69.22 6.55 69.22 7.10L69.22 7.10L69.22 7.27L69.48 6L72.94 6L71.21 14.16Q71.11 14.52 71.11 14.93L71.11 14.93Q71.11 15.96 72.10 15.96L72.10 15.96Q72.77 15.96 73.26 15.34Q73.75 14.71 74.04 13.70L74.04 13.70L75.05 13.70Q74.16 16.30 72.85 17.22Q71.54 18.14 70.22 18.14L70.22 18.14Q69.22 18.14 68.60 17.58Q67.99 17.02 67.87 15.94L67.87 15.94Q67.18 16.92 66.32 17.53Q65.47 18.14 64.30 18.14L64.30 18.14ZM65.86 15.82Q66.46 15.82 67.04 15.25Q67.63 14.69 67.85 13.70L67.85 13.70L69 8.28Q69 7.97 68.76 7.67Q68.52 7.37 68.02 7.37L68.02 7.37Q67.06 7.37 66.29 8.48Q65.52 9.60 65.09 11.17Q64.66 12.74 64.66 13.94L64.66 13.94Q64.66 15.14 65.00 15.48Q65.35 15.82 65.86 15.82L65.86 15.82ZM76.78 18.14Q75.62 18.14 74.83 17.70Q74.04 17.26 73.66 16.55Q73.27 15.84 73.27 15.07L73.27 15.07Q73.27 14.28 73.64 13.69Q74.02 13.10 74.54 12.84L74.54 12.84Q75.48 11.16 76.18 9.44Q76.87 7.73 77.50 5.74L77.50 5.74L81.05 5.26Q81.17 8.33 81.46 11.90L81.46 11.90Q81.58 13.34 81.58 13.99L81.58 13.99Q81.58 14.54 81.48 14.90L81.48 14.90Q82.61 14.26 83.21 13.70L83.21 13.70L84.22 13.70Q82.68 15.48 80.54 16.70L80.54 16.70Q79.85 17.45 78.83 17.80Q77.81 18.14 76.78 18.14L76.78 18.14ZM76.01 16.25Q76.90 16.25 77.50 15.72Q78.10 15.19 78.10 14.02L78.10 14.02Q78.10 13.30 77.95 12L77.95 12Q77.71 9.26 77.64 8.33L77.64 8.33Q77.06 10.22 75.70 12.86L75.70 12.86Q76.25 13.15 76.25 13.70L76.25 13.70Q76.25 14.16 75.95 14.52Q75.65 14.88 75.19 14.88L75.19 14.88Q74.69 14.88 74.54 14.57L74.54 14.57Q74.54 15.43 74.89 15.84Q75.24 16.25 76.01 16.25L76.01 16.25Z" transform="translate(0, 6)"></path></svg>